# Blender 3.4.0
# www.blender.org
o teapot
v 0.000000 0.253982 -0.350000
v 0.248500 0.253982 -0.248500
v 0.249055 0.278592 -0.249055
v 0.000000 0.278592 -0.350780
v 0.266250 0.253982 -0.266250
v 0.000000 0.253982 -0.375000
v 0.350000 0.253982 0.000000
v 0.350780 0.278592 0.000000
v 0.375000 0.253982 0.000000
v 0.248500 0.253982 0.256935
v 0.249055 0.278592 0.250110
v 0.266250 0.253982 0.266250
v -0.000000 0.253982 0.350000
v -0.000000 0.278592 0.350780
v -0.000000 0.253982 0.375000
v -0.248500 0.253982 0.248500
v -0.249055 0.278592 0.249055
v -0.266250 0.253982 0.266250
v -0.350000 0.253982 -0.000000
v -0.350780 0.278592 -0.000000
v -0.375000 0.253982 -0.000000
v -0.248500 0.253982 -0.248500
v -0.249055 0.278592 -0.249055
v -0.266250 0.253982 -0.266250
v 0.327265 0.059452 -0.327265
v 0.000000 0.059452 -0.460940
v 0.355000 -0.121018 -0.355000
v 0.000000 -0.121018 -0.500000
v 0.460940 0.059452 0.000000
v 0.500000 -0.121018 0.000000
v 0.327265 0.059452 0.327265
v 0.355000 -0.121018 0.355000
v -0.000000 0.059452 0.460940
v -0.000000 -0.121018 0.500000
v -0.327265 0.059452 0.327265
v -0.355000 -0.121018 0.355000
v -0.460940 0.059452 -0.000000
v -0.500000 -0.121018 -0.000000
v -0.327265 0.059452 -0.327265
v -0.355000 -0.121018 -0.355000
v 0.310625 -0.249923 -0.310625
v 0.000000 -0.249923 -0.437500
v 0.266250 -0.308518 -0.266250
v 0.000000 -0.308518 -0.375000
v 0.437500 -0.249923 0.000000
v 0.375000 -0.308518 0.000000
v 0.310625 -0.249923 0.310625
v 0.266250 -0.308518 0.266250
v -0.000000 -0.249923 0.437500
v -0.000000 -0.308518 0.375000
v -0.310625 -0.249923 0.310625
v -0.266250 -0.308518 0.266250
v -0.437500 -0.249923 -0.000000
v -0.375000 -0.308518 -0.000000
v -0.310625 -0.249923 -0.310625
v -0.266250 -0.308518 -0.266250
v 0.227975 -0.334298 -0.227975
v 0.000000 -0.334298 -0.321095
v 0.000000 -0.346018 0.000000
v 0.321095 -0.334298 0.000000
v 0.227975 -0.334298 0.227975
v -0.000000 -0.334298 0.321095
v -0.227975 -0.334298 0.227975
v -0.321095 -0.334298 -0.000000
v -0.227975 -0.334298 -0.227975
v -0.000000 0.160232 0.400000
v 0.056250 0.188357 0.387500
v 0.056250 0.177812 0.629690
v -0.000000 0.153202 0.603125
v 0.056250 0.103982 0.712500
v -0.000000 0.103982 0.675000
v -0.000000 0.216482 0.375000
v -0.000000 0.202422 0.656250
v -0.000000 0.103982 0.750000
v -0.056250 0.188357 0.387500
v -0.056250 0.177812 0.629690
v -0.056250 0.103982 0.712500
v 0.056250 -0.032543 0.658595
v -0.000000 -0.008518 0.634375
v 0.056250 -0.158518 0.487500
v -0.000000 -0.056563 0.682815
v -0.000000 -0.196018 0.475000
v -0.056250 -0.032543 0.658595
v -0.056250 -0.158518 0.487500
v 0.000000 0.010232 -0.425000
v 0.123750 -0.092893 -0.425000
v 0.085310 0.059452 -0.634375
v 0.000000 0.103982 -0.596875
v 0.046875 0.253982 -0.750000
v 0.000000 0.253982 -0.675000
v 0.000000 -0.196018 -0.425000
v 0.000000 0.014917 -0.671875
v 0.000000 0.253982 -0.825000
v -0.123750 -0.092893 -0.425000
v -0.085310 0.059452 -0.634375
v -0.046875 0.253982 -0.750000
v 0.037500 0.270682 -0.781640
v 0.000000 0.268047 -0.706250
v 0.028125 0.253982 -0.750000
v 0.000000 0.253982 -0.700000
v 0.000000 0.273317 -0.857030
v 0.000000 0.253982 -0.800000
v -0.037500 0.270682 -0.781640
v -0.028125 0.253982 -0.750000
v 0.057760 0.399297 -0.057760
v 0.000000 0.399297 -0.081250
v 0.000000 0.441482 0.000000
v 0.035500 0.328982 -0.035500
v 0.000000 0.328982 -0.050000
v 0.081250 0.399297 0.000000
v 0.050000 0.328982 0.000000
v 0.057760 0.399297 0.057760
v 0.035500 0.328982 0.035500
v -0.000000 0.399297 0.081250
v -0.000000 0.328982 0.050000
v -0.057760 0.399297 0.057760
v -0.035500 0.328982 0.035500
v -0.081250 0.399297 -0.000000
v -0.050000 0.328982 -0.000000
v -0.057760 0.399297 -0.057760
v -0.035500 0.328982 -0.035500
v 0.146440 0.291482 -0.146440
v 0.000000 0.291482 -0.206250
v 0.230750 0.253982 -0.230750
v 0.000000 0.253982 -0.325000
v 0.206250 0.291482 0.000000
v 0.325000 0.253982 0.000000
v 0.146440 0.291482 0.146440
v 0.230750 0.253982 0.230750
v -0.000000 0.291482 0.206250
v -0.000000 0.253982 0.325000
v -0.146440 0.291482 0.146440
v -0.230750 0.253982 0.230750
v -0.206250 0.291482 -0.000000
v -0.325000 0.253982 -0.000000
v -0.146440 0.291482 -0.146440
v -0.230750 0.253982 -0.230750
vn -0.7068 0.0319 0.7067
vn -0.0000 0.9899 0.1417
vn -0.0000 0.0272 0.9996
vn -0.0967 0.9906 0.0966
vn -0.0000 0.5425 -0.8400
vn -0.7067 0.0319 0.7067
vn -0.1379 0.9904 -0.0023
vn -0.0966 0.9906 0.0966
vn 0.8395 0.5434 -0.0001
vn 0.5936 0.5435 -0.5936
vn -0.9985 0.0541 -0.0012
vn -0.2385 0.9688 -0.0678
vn -0.1379 0.9904 -0.0024
vn 0.5984 0.5352 0.5962
vn -0.6574 -0.2743 -0.7018
vn 0.0145 0.9888 -0.1482
vn -0.2384 0.9688 -0.0678
vn -0.0012 0.5439 0.8391
vn 0.7068 0.0319 -0.7067
vn 0.0145 0.9889 -0.1482
vn 0.0201 0.1051 -0.9943
vn 0.0967 0.9906 -0.0966
vn 0.0144 0.9889 -0.1482
vn 0.7067 0.0319 -0.7067
vn 0.1417 0.9899 -0.0000
vn 0.0966 0.9906 -0.0966
vn -0.8400 0.5425 -0.0000
vn -0.5936 0.5435 0.5936
vn 0.7067 0.0319 0.7068
vn 0.9996 0.0272 -0.0000
vn 0.0966 0.9906 0.0967
vn 0.7068 0.0319 0.7067
vn 0.0966 0.9906 0.0966
vn -0.5936 0.5435 -0.5936
vn -0.0000 0.3025 -0.9532
vn 0.6738 0.3034 -0.6738
vn -0.0000 -0.1105 -0.9939
vn 0.9531 0.3025 -0.0000
vn 0.9939 -0.1105 -0.0000
vn 0.7028 -0.1107 -0.7028
vn 0.9532 0.3025 -0.0000
vn 0.6738 0.3034 0.6738
vn -0.0000 0.3025 0.9531
vn -0.0000 -0.1105 0.9939
vn 0.7028 -0.1107 0.7028
vn -0.0000 0.3025 0.9532
vn -0.6738 0.3034 0.6738
vn -0.9531 0.3025 -0.0000
vn -0.9939 -0.1105 -0.0000
vn -0.7028 -0.1107 0.7028
vn -0.9532 0.3025 -0.0000
vn -0.6738 0.3034 -0.6738
vn -0.0000 0.3025 -0.9531
vn -0.7028 -0.1107 -0.7028
vn 0.5793 -0.5735 -0.5792
vn -0.0000 -0.5726 -0.8198
vn 0.4157 -0.8089 -0.4157
vn -0.0000 -0.8083 -0.5888
vn 0.5792 -0.5736 -0.5792
vn 0.8198 -0.5726 -0.0000
vn 0.5792 -0.5735 0.5793
vn 0.4157 -0.8089 0.4157
vn 0.5888 -0.8083 -0.0000
vn 0.5792 -0.5736 0.5792
vn -0.0000 -0.5726 0.8198
vn -0.5793 -0.5735 0.5792
vn -0.4157 -0.8089 0.4157
vn -0.0000 -0.8083 0.5888
vn -0.5792 -0.5736 0.5792
vn -0.8198 -0.5726 -0.0000
vn -0.5792 -0.5735 -0.5793
vn -0.4157 -0.8089 -0.4157
vn -0.5888 -0.8083 -0.0000
vn -0.5792 -0.5736 -0.5792
vn 0.2016 -0.9585 -0.2016
vn -0.0000 -0.9585 -0.2850
vn -0.0000 -1.0000 -0.0000
vn 0.2850 -0.9585 -0.0000
vn 0.2016 -0.9585 0.2016
vn -0.0000 -0.9585 0.2850
vn -0.2016 -0.9585 0.2016
vn -0.2850 -0.9585 -0.0000
vn -0.2016 -0.9585 -0.2016
vn 0.9643 0.2642 0.0163
vn -0.0139 -0.9684 -0.2491
vn -0.0031 -0.9994 -0.0335
vn 0.9855 0.1692 -0.0100
vn -0.0411 -0.3658 -0.9298
vn 0.0014 0.9990 0.0450
vn 0.0044 0.8967 0.4425
vn 0.9457 0.1168 0.3032
vn -0.9849 0.1729 -0.0063
vn -0.9575 0.1027 0.2694
vn -0.0032 0.1651 0.9863
vn -0.9654 0.2602 0.0158
vn -0.9849 0.1729 -0.0062
vn 0.9458 0.1167 0.3032
vn -0.0134 0.5592 -0.8289
vn 0.9910 -0.0737 0.1115
vn -0.0290 0.7942 -0.6069
vn -0.0134 0.5593 -0.8289
vn 0.9458 0.1168 0.3032
vn 0.0079 -0.6206 0.7841
vn 0.7618 -0.5429 0.3534
vn -0.7878 -0.5244 0.3230
vn 0.0076 -0.8321 0.5545
vn -0.9575 0.1028 0.2694
vn -0.9902 -0.0950 0.1021
vn -0.9902 -0.0951 0.1021
vn -0.7878 -0.5244 0.3231
vn -0.0072 0.8726 0.4884
vn 0.9783 0.0282 -0.2052
vn 0.0236 0.6678 0.7440
vn 0.0564 0.7144 0.6974
vn 0.9129 -0.2475 -0.3245
vn -0.0174 -0.6196 -0.7847
vn -0.0174 -0.6195 -0.7848
vn 0.9549 0.2940 0.0408
vn -0.9074 -0.2439 -0.3423
vn -0.0025 -0.7621 -0.6475
vn -0.0174 -0.6196 -0.7848
vn -0.9453 0.3207 -0.0592
vn -0.1005 -0.7910 -0.6035
vn -0.0072 0.8726 0.4885
vn -0.9830 -0.0165 -0.1831
vn -0.9829 -0.0165 -0.1831
vn 0.0671 0.9973 -0.0307
vn -0.9495 -0.0791 -0.3038
vn 0.0142 -0.2959 -0.9551
vn 0.6252 0.7396 -0.2492
vn -0.0029 0.9469 0.3214
vn -0.9495 -0.0791 -0.3037
vn -0.5303 0.7443 -0.4059
vn -0.1337 0.4661 -0.8746
vn -0.5303 0.7443 -0.4060
vn 0.0670 0.9973 -0.0307
vn 0.9320 -0.1526 -0.3288
vn 0.6774 0.2870 -0.6773
vn -0.0000 0.2882 -0.9576
vn -0.0000 1.0000 -0.0000
vn 0.5951 0.5395 -0.5957
vn 0.0002 0.5374 -0.8433
vn 0.9576 0.2882 -0.0000
vn 0.6773 0.2870 -0.6774
vn 0.5951 0.5395 -0.5956
vn 0.6773 0.2870 0.6774
vn 0.5957 0.5395 0.5951
vn 0.8436 0.5369 0.0004
vn -0.0000 0.2882 0.9576
vn 0.6774 0.2870 0.6773
vn 0.5956 0.5395 0.5951
vn -0.6774 0.2870 0.6773
vn -0.5951 0.5395 0.5957
vn -0.0003 0.5370 0.8436
vn -0.9576 0.2882 -0.0000
vn -0.6773 0.2870 0.6774
vn -0.5951 0.5395 0.5956
vn -0.6773 0.2870 -0.6774
vn -0.5957 0.5395 -0.5951
vn -0.8436 0.5369 -0.0004
vn -0.6774 0.2870 -0.6773
vn -0.5956 0.5395 -0.5951
vn 0.5952 0.5395 -0.5956
vn -0.0000 0.9613 -0.2754
vn 0.0003 0.5374 -0.8433
vn 0.1942 0.9616 -0.1942
vn -0.0000 0.9536 -0.3011
vn 0.2754 0.9613 -0.0000
vn 0.3011 0.9536 -0.0000
vn 0.2121 0.9539 -0.2121
vn 0.5956 0.5395 0.5952
vn 0.1942 0.9616 0.1942
vn -0.0000 0.9613 0.2754
vn -0.0000 0.9536 0.3011
vn 0.2121 0.9539 0.2121
vn -0.5952 0.5395 0.5956
vn -0.1942 0.9616 0.1942
vn -0.2754 0.9613 -0.0000
vn -0.3011 0.9536 -0.0000
vn -0.2121 0.9539 0.2121
vn -0.5956 0.5395 -0.5952
vn -0.1942 0.9616 -0.1942
vn -0.2121 0.9539 -0.2121
vn -0.7069 0.0270 0.7068
vn -0.1379 0.9904 -0.0022
vn -0.0966 0.9906 0.0967
vn 0.0143 0.9889 -0.1482
vn -0.2386 0.9688 -0.0678
vn 0.7069 0.0270 -0.7068
vn 0.9995 0.0317 -0.0000
vn 0.0966 0.9906 -0.0967
vn 0.7067 0.0319 0.7067
vn 0.7068 0.0270 0.7069
vn -0.0000 0.0317 0.9995
vn 0.0967 0.9906 0.0966
vn 0.5792 -0.5735 -0.5793
vn 0.5793 -0.5735 0.5792
vn -0.5792 -0.5735 0.5793
vn -0.5793 -0.5735 -0.5792
vn 0.0044 0.8968 0.4425
vn -0.9654 0.2602 0.0157
vn 0.7619 -0.5429 0.3534
vn -0.9575 0.1027 0.2695
vn -0.0290 0.7943 -0.6069
vn -0.0072 0.8725 0.4885
vn 0.9129 -0.2475 -0.3246
vn -0.9830 -0.0166 -0.1831
vn 0.0564 0.7144 0.6975
vn 0.0671 0.9973 -0.0306
vn 0.6252 0.7396 -0.2491
vn -0.1337 0.4660 -0.8746
vn 0.6252 0.7396 -0.2493
vn 0.0142 -0.2960 -0.9551
s 0
f 2//1 4//2 1//3
f 3//4 6//5 4//2
f 2//6 8//7 3//8
f 3//8 9//9 5//10
f 7//11 11//12 8//13
f 8//7 12//14 9//9
f 10//15 14//16 11//12
f 11//17 15//18 12//14
f 16//19 14//20 13//21
f 17//22 15//18 14//23
f 16//24 20//25 17//26
f 17//26 21//27 18//28
f 22//29 20//25 19//30
f 23//31 21//27 20//25
f 22//32 4//2 23//33
f 23//33 6//5 24//34
f 5//10 26//35 6//5
f 25//36 28//37 26//35
f 5//10 29//38 25//36
f 25//36 30//39 27//40
f 12//14 29//41 9//9
f 31//42 30//39 29//41
f 12//14 33//43 31//42
f 31//42 34//44 32//45
f 18//28 33//46 15//18
f 35//47 34//44 33//46
f 18//28 37//48 35//47
f 35//47 38//49 36//50
f 24//34 37//51 21//27
f 39//52 38//49 37//51
f 24//34 26//53 39//52
f 39//52 28//37 40//54
f 28//37 41//55 42//56
f 42//56 43//57 44//58
f 30//39 41//59 27//40
f 45//60 43//57 41//55
f 30//39 47//61 45//60
f 45//60 48//62 46//63
f 34//44 47//64 32//45
f 49//65 48//62 47//61
f 34//44 51//66 49//65
f 49//65 52//67 50//68
f 38//49 51//69 36//50
f 53//70 52//67 51//66
f 38//49 55//71 53//70
f 53//70 56//72 54//73
f 28//37 55//74 40//54
f 42//56 56//72 55//71
f 44//58 57//75 58//76
f 58//76 57//75 59//77
f 46//63 57//75 43//57
f 57//75 60//78 59//77
f 46//63 61//79 60//78
f 60//78 61//79 59//77
f 50//68 61//79 48//62
f 61//79 62//80 59//77
f 50//68 63//81 62//80
f 62//80 63//81 59//77
f 54//73 63//81 52//67
f 63//81 64//82 59//77
f 54//73 65//83 64//82
f 64//82 65//83 59//77
f 44//58 65//83 56//72
f 65//83 58//76 59//77
f 67//84 69//85 66//86
f 68//87 71//88 69//85
f 72//89 68//87 67//84
f 73//90 70//91 68//87
f 72//89 76//92 73//90
f 73//90 77//93 74//94
f 75//95 69//85 76//96
f 76//92 71//88 77//93
f 70//97 79//98 71//88
f 78//99 34//100 79//101
f 70//102 81//103 78//99
f 81//103 80//104 78//99
f 77//93 81//103 74//94
f 81//103 84//105 82//106
f 77//107 79//101 83//108
f 83//109 34//100 84//110
f 85//111 87//112 88//113
f 87//112 90//114 88//113
f 86//115 92//116 87//112
f 92//117 89//118 87//112
f 94//119 92//116 91//120
f 92//121 96//122 93//123
f 85//124 95//125 94//119
f 95//126 90//114 96//122
f 89//118 98//127 90//114
f 98//127 99//128 100//129
f 93//123 97//130 89//118
f 97//130 102//131 99//132
f 93//123 103//133 101//134
f 103//135 102//131 101//134
f 96//122 98//127 103//133
f 98//136 104//137 103//133
f 105//138 106//139 107//140
f 106//139 108//141 109//142
f 110//143 105//144 107//140
f 110//143 108//145 105//138
f 112//146 110//143 107//140
f 110//143 113//147 111//148
f 114//149 112//150 107//140
f 114//149 113//151 112//146
f 116//152 114//149 107//140
f 114//149 117//153 115//154
f 118//155 116//156 107//140
f 118//155 117//157 116//152
f 120//158 118//155 107//140
f 118//155 121//159 119//160
f 106//139 120//161 107//140
f 106//139 121//162 120//158
f 108//163 123//164 109//165
f 122//166 125//167 123//164
f 108//145 126//168 122//166
f 122//166 127//169 124//170
f 113//171 126//168 111//148
f 128//172 127//169 126//168
f 113//151 130//173 128//172
f 128//172 131//174 129//175
f 117//176 130//173 115//154
f 132//177 131//174 130//173
f 117//157 134//178 132//177
f 132//177 135//179 133//180
f 121//181 134//178 119//160
f 136//182 135//179 134//178
f 121//162 123//164 136//182
f 136//182 125//167 137//183
f 2//1 3//8 4//2
f 3//8 5//10 6//5
f 2//184 7//11 8//185
f 3//186 8//7 9//9
f 7//11 10//15 11//12
f 8//13 11//12 12//14
f 10//15 13//21 14//187
f 11//188 14//23 15//18
f 16//19 17//26 14//23
f 17//26 18//28 15//18
f 16//189 19//190 20//25
f 17//191 20//25 21//27
f 22//192 23//33 20//25
f 23//33 24//34 21//27
f 22//193 1//194 4//2
f 23//195 4//2 6//5
f 5//10 25//36 26//53
f 25//36 27//40 28//37
f 5//10 9//9 29//41
f 25//36 29//41 30//39
f 12//14 31//42 29//38
f 31//42 32//45 30//39
f 12//14 15//18 33//46
f 31//42 33//46 34//44
f 18//28 35//47 33//43
f 35//47 36//50 34//44
f 18//28 21//27 37//51
f 35//47 37//51 38//49
f 24//34 39//52 37//48
f 39//52 40//54 38//49
f 24//34 6//5 26//35
f 39//52 26//35 28//37
f 28//37 27//40 41//59
f 42//56 41//196 43//57
f 30//39 45//60 41//196
f 45//60 46//63 43//57
f 30//39 32//45 47//64
f 45//60 47//197 48//62
f 34//44 49//65 47//197
f 49//65 50//68 48//62
f 34//44 36//50 51//69
f 49//65 51//198 52//67
f 38//49 53//70 51//198
f 53//70 54//73 52//67
f 38//49 40//54 55//74
f 53//70 55//199 56//72
f 28//37 42//56 55//199
f 42//56 44//58 56//72
f 44//58 43//57 57//75
f 46//63 60//78 57//75
f 46//63 48//62 61//79
f 50//68 62//80 61//79
f 50//68 52//67 63//81
f 54//73 64//82 63//81
f 54//73 56//72 65//83
f 44//58 58//76 65//83
f 67//84 68//87 69//85
f 68//87 70//91 71//88
f 72//89 73//90 68//87
f 73//200 74//94 70//91
f 72//89 75//201 76//92
f 73//200 76//92 77//93
f 75//201 66//86 69//85
f 76//92 69//85 71//88
f 70//91 78//99 79//101
f 78//99 80//202 34//100
f 70//91 74//94 81//103
f 81//103 82//106 80//104
f 77//203 83//109 81//103
f 81//103 83//109 84//105
f 77//93 71//88 79//101
f 83//109 79//101 34//204
f 85//205 86//206 87//112
f 87//112 89//118 90//114
f 86//115 91//120 92//117
f 92//116 93//123 89//118
f 94//119 95//125 92//117
f 92//121 95//125 96//122
f 85//205 88//113 95//125
f 95//207 88//113 90//208
f 89//118 97//130 98//127
f 98//209 97//210 99//128
f 93//123 101//211 97//130
f 97//212 101//134 102//131
f 93//123 96//122 103//133
f 103//133 104//137 102//131
f 96//122 90//114 98//127
f 98//127 100//213 104//137
f 106//139 105//144 108//145
f 110//143 111//148 108//145
f 110//143 112//150 113//151
f 114//149 115//154 113//151
f 114//149 116//156 117//157
f 118//155 119//160 117//157
f 118//155 120//161 121//162
f 106//139 109//165 121//162
f 108//145 122//166 123//164
f 122//166 124//170 125//167
f 108//145 111//148 126//168
f 122//166 126//168 127//169
f 113//151 128//172 126//168
f 128//172 129//175 127//169
f 113//151 115//154 130//173
f 128//172 130//173 131//174
f 117//157 132//177 130//173
f 132//177 133//180 131//174
f 117//157 119//160 134//178
f 132//177 134//178 135//179
f 121//162 136//182 134//178
f 136//182 137//183 135//179
f 121//162 109//165 123//164
f 136//182 123//164 125//167
